<svg width="223" height="230" viewBox="0 0 223 230" fill="none" xmlns="http://www.w3.org/2000/svg">
<g filter="url(#filter0_f_51023_7002)">
<path d="M130.115 164.178L197.608 183.586L164.519 121.788L203.981 63.6698L134.805 75.9734L91.7428 20.9693L81.9519 90.1353L15.8919 114.068L79.0324 144.694L81.369 214.732L130.115 164.178Z" fill="black"/>
<path d="M130.115 164.178L197.608 183.586L164.519 121.788L203.981 63.6698L134.805 75.9734L91.7428 20.9693L81.9519 90.1353L15.8919 114.068L79.0324 144.694L81.369 214.732L130.115 164.178Z" fill="url(#paint0_linear_51023_7002)"/>
</g>
<path d="M76.8945 110.138C77.7279 105.638 81.6945 98.338 90.8945 105.138M127.395 98.1381C129.728 94.8048 135.795 90.3382 141.395 99.1381M96.8945 117.138C99.2279 121.472 105.895 129.638 113.895 127.638C123.895 125.138 126.895 120.138 127.895 111.138" stroke="white" stroke-width="4" stroke-linecap="round"/>
<defs>
<filter id="filter0_f_51023_7002" x="0.891602" y="5.96924" width="218.09" height="223.763" filterUnits="userSpaceOnUse" color-interpolation-filters="sRGB">
<feFlood flood-opacity="0" result="BackgroundImageFix"/>
<feBlend mode="normal" in="SourceGraphic" in2="BackgroundImageFix" result="shape"/>
<feGaussianBlur stdDeviation="7.5" result="effect1_foregroundBlur_51023_7002"/>
</filter>
<linearGradient id="paint0_linear_51023_7002" x1="38.378" y1="186.654" x2="150.265" y2="-1.82898" gradientUnits="userSpaceOnUse">
<stop stop-color="#FAF6F0"/>
<stop offset="0.525307" stop-color="#D8F291"/>
<stop offset="1" stop-color="#BDEFB1"/>
</linearGradient>
</defs>
</svg>
